<?xml version="1.0" standalone="no"?>
<!DOCTYPE svg PUBLIC "-//W3C//DTD SVG 20010904//EN"
 "http://www.w3.org/TR/2001/REC-SVG-20010904/DTD/svg10.dtd">
<svg version="1.0" xmlns="http://www.w3.org/2000/svg"
 width="757.000000pt" height="746.000000pt" viewBox="0 0 757.000000 746.000000"
 preserveAspectRatio="xMidYMid meet">

<g transform="translate(0.000000,746.000000) scale(0.100000,-0.100000)"
 stroke="none">
<path d="M3651 7324 c-171 -46 -318 -194 -352 -355 -20 -96 -47 -129 -105
-129 -20 0 -49 22 -119 90 l-92 90 -1129 -2 -1129 -3 -56 -26 c-69 -33 -134
-95 -163 -158 l-21 -46 -3 -1143 -2 -1143 85 -89 c70 -73 85 -94 85 -120 0
-63 -28 -83 -131 -95 -154 -17 -303 -148 -367 -325 -95 -262 38 -565 291 -659
32 -11 76 -21 98 -21 71 0 108 -31 109 -93 0 -35 -8 -46 -86 -125 l-86 -87 4
-1125 3 -1125 29 -63 c38 -81 116 -155 188 -177 45 -13 198 -15 1168 -15
l1115 0 90 90 c71 71 96 90 118 90 59 0 86 -32 106 -128 35 -168 188 -313 377
-358 269 -63 566 105 615 348 21 107 45 138 106 138 34 0 52 -15 156 -128 l49
-52 1119 0 1118 0 58 21 c68 26 138 91 173 164 l25 50 3 1140 2 1140 -85 85
c-96 95 -106 125 -62 176 20 23 35 29 95 35 322 34 511 435 353 747 -67 133
-213 241 -348 258 -100 12 -135 44 -119 109 4 14 42 63 86 110 l80 85 -2 1147
-3 1148 -23 43 c-35 67 -97 127 -155 153 l-52 24 -1132 3 c-958 2 -1133 0
-1145 -12 -154 -161 -160 -166 -198 -166 -51 0 -74 29 -99 128 -26 106 -67
177 -138 242 -101 93 -204 130 -352 129 -53 0 -120 -7 -150 -15z m233 -345
c56 -20 93 -54 123 -113 21 -40 22 -141 2 -181 l-15 -30 106 -133 c103 -129
106 -132 138 -127 68 12 147 -32 189 -103 21 -36 25 -52 21 -102 -3 -48 -10
-67 -35 -97 -52 -65 -85 -78 -193 -78 -106 -1 -88 7 -375 -147 -391 -211 -712
-435 -1040 -726 -49 -44 -91 -79 -93 -77 -5 5 76 184 113 250 79 142 227 317
350 415 173 137 569 366 820 475 32 13 46 28 62 62 l21 45 -77 92 c-42 50 -87
106 -99 124 -23 31 -25 32 -77 26 -29 -4 -67 -2 -83 4 l-30 10 -63 -106 c-71
-123 -162 -223 -259 -286 -248 -163 -304 -202 -375 -259 -94 -76 -223 -207
-284 -291 -193 -262 -301 -548 -301 -801 l0 -93 -63 -104 c-34 -56 -74 -129
-87 -160 -14 -32 -28 -58 -32 -58 -3 0 -14 44 -25 98 -27 143 -24 459 5 594
46 209 128 398 260 593 206 306 426 491 874 735 55 30 105 68 148 111 85 87
97 110 82 153 -16 44 -15 126 2 167 18 44 54 82 97 105 76 39 117 42 193 13z
m-824 -384 c35 -53 61 -97 59 -99 -2 -2 -62 -25 -134 -51 -143 -52 -358 -156
-447 -217 -327 -221 -556 -630 -608 -1083 -35 -307 30 -725 158 -1022 l38 -88
-4 -212 c-2 -117 -7 -213 -11 -213 -3 0 -25 28 -47 63 -147 225 -293 590 -348
867 -49 244 -54 453 -19 705 37 272 147 555 303 785 l37 54 -48 47 c-84 82
-97 194 -33 291 77 119 264 129 353 21 l28 -34 59 39 c144 96 413 208 564 235
14 2 28 5 31 6 4 0 35 -42 69 -94z m1744 40 c165 -51 301 -108 399 -166 l69
-41 31 30 c87 84 226 83 311 -1 107 -107 78 -284 -58 -352 -110 -55 -245 -15
-297 88 -12 23 -25 44 -30 47 -4 3 -50 5 -101 5 l-93 0 -7 -42 c-12 -75 -61
-140 -121 -162 -47 -18 -133 -13 -178 9 -58 30 -99 99 -99 167 0 61 30 133 66
162 13 10 24 21 24 23 0 2 -48 19 -107 38 -60 19 -109 35 -111 36 -5 3 16 41
70 127 33 51 56 77 69 77 10 0 83 -20 163 -45z m-3350 -363 c44 -26 85 -89 92
-144 6 -39 2 -57 -19 -100 -36 -72 -82 -102 -156 -103 -121 0 -191 66 -191
181 0 148 150 238 274 166z m4866 3 c62 -32 107 -126 96 -199 -15 -93 -86
-150 -186 -150 -66 1 -109 21 -146 69 -66 86 -27 238 71 281 41 18 129 17 165
-1z m-1093 -396 c107 -14 259 -54 373 -96 165 -62 382 -178 491 -264 40 -31
59 -36 59 -16 0 24 69 95 115 117 125 60 273 -5 311 -138 27 -92 0 -180 -75
-244 l-40 -34 46 -69 c85 -133 161 -299 213 -470 26 -86 56 -233 49 -239 -6
-5 -186 -56 -198 -56 -5 0 -22 38 -36 85 -63 208 -180 439 -290 575 -227 279
-621 512 -990 587 -124 24 -486 25 -626 0 -354 -62 -770 -235 -1144 -475 -213
-137 -484 -369 -606 -518 -170 -208 -276 -451 -314 -716 l-6 -48 39 0 c84 0
157 -90 149 -182 -7 -83 -77 -148 -157 -148 -30 0 -31 -1 -25 -37 48 -281 170
-552 317 -704 83 -86 163 -136 313 -194 37 -14 -72 -36 -210 -42 -109 -4 -148
-2 -240 17 -199 40 -426 142 -595 269 -292 218 -572 604 -797 1096 -35 76 -66
141 -68 144 -3 2 -90 -83 -195 -189 l-190 -193 97 -101 c53 -56 109 -114 124
-130 l27 -29 44 22 c88 42 187 15 238 -66 38 -59 44 -100 24 -158 l-16 -48 53
-76 c135 -195 321 -393 487 -518 158 -120 361 -211 562 -254 153 -33 439 -33
590 -1 196 42 405 124 579 225 l62 37 155 0 c84 0 154 -4 154 -8 0 -10 -91
-98 -150 -144 -66 -53 -230 -148 -345 -200 -200 -91 -364 -140 -550 -163 -426
-53 -816 35 -1155 263 -247 165 -493 430 -609 656 -35 67 -49 85 -70 89 -74
15 -141 103 -141 184 0 43 -3 47 -112 152 l-112 108 -42 -30 c-77 -54 -198
-47 -268 17 -140 126 -75 361 108 395 60 11 130 -7 171 -44 15 -14 30 -25 34
-23 3 2 81 80 173 173 l167 170 -34 38 c-36 40 -50 86 -43 136 l4 29 -66 4
c-117 6 -189 78 -190 188 0 48 35 135 63 159 10 7 17 22 17 32 0 48 112 301
173 390 l24 36 -29 19 c-41 27 -86 99 -94 150 -18 124 50 230 168 260 101 27
199 -19 253 -117 37 -67 40 -143 8 -204 -11 -22 -52 -101 -91 -175 -75 -144
-137 -288 -148 -346 -5 -29 -2 -40 19 -62 33 -35 47 -72 47 -129 l0 -45 33 6
c65 12 151 -31 186 -94 32 -57 35 -99 12 -166 l-21 -59 129 -260 c132 -267
207 -394 328 -557 80 -108 216 -256 317 -346 65 -59 316 -235 324 -228 1 2
-22 50 -52 107 -62 118 -114 266 -148 419 -30 141 -33 486 -5 620 78 367 243
657 542 955 452 449 1216 842 1785 919 127 17 429 20 537 5z m-269 -529 c259
-28 532 -134 774 -302 241 -166 532 -493 644 -721 16 -31 36 -60 46 -63 28 -9
77 -53 94 -85 8 -16 16 -49 18 -74 3 -42 11 -52 109 -152 l106 -107 23 21 c56
53 159 68 233 34 147 -67 177 -260 58 -373 -77 -73 -218 -78 -289 -10 l-21 20
-192 -191 c-189 -189 -191 -192 -169 -207 43 -28 79 -75 92 -120 10 -34 18
-44 32 -43 11 2 37 6 59 9 33 5 51 0 105 -28 65 -34 65 -34 62 -74 -4 -56 -30
-150 -57 -214 -13 -30 -40 -100 -60 -155 -20 -55 -61 -152 -91 -215 l-55 -115
26 -18 c61 -45 98 -161 74 -234 -34 -106 -116 -165 -224 -165 -74 1 -128 24
-170 74 -81 96 -74 214 18 315 36 39 57 74 77 131 16 42 46 125 68 185 22 59
35 110 31 113 -23 14 -49 86 -49 134 l0 50 -50 0 c-90 0 -168 58 -190 141 -12
44 -7 84 16 140 16 36 15 38 -44 180 -259 621 -549 1014 -931 1260 -41 27 -77
47 -79 45 -2 -2 17 -41 42 -87 144 -271 201 -674 141 -1014 -97 -557 -521
-1073 -1200 -1462 -416 -238 -783 -375 -1146 -428 -136 -19 -384 -19 -533 0
-121 16 -317 67 -426 112 -124 50 -315 153 -395 213 -44 33 -83 60 -87 60 -4
0 -14 -15 -21 -33 -18 -42 -72 -96 -114 -113 -48 -21 -146 -18 -192 5 -48 25
-95 79 -111 126 -28 85 11 203 85 256 l44 31 -48 77 c-78 123 -127 218 -179
346 -45 111 -109 313 -101 319 18 13 203 66 208 59 4 -4 27 -55 51 -113 121
-294 244 -487 413 -646 163 -154 318 -254 531 -345 233 -98 384 -124 681 -116
236 5 370 29 605 106 496 164 995 464 1316 793 203 207 334 445 395 718 26
118 25 125 -12 128 -91 7 -160 100 -145 195 13 79 61 126 141 137 39 5 40 6
37 40 -13 141 -70 336 -142 485 -92 191 -210 312 -399 411 l-74 39 54 13 c30
8 107 16 172 19 99 5 132 2 215 -17 444 -102 837 -427 1142 -945 86 -145 215
-406 249 -502 18 -49 36 -95 40 -102 6 -8 29 10 77 61 38 40 125 130 193 200
l124 127 -19 23 c-11 13 -63 65 -116 116 l-95 93 -34 -20 c-74 -45 -199 -19
-252 51 -52 70 -57 139 -16 221 l20 38 -88 121 c-297 406 -632 654 -1013 749
-108 27 -401 38 -518 19 -230 -36 -456 -120 -648 -241 l-62 -40 -158 3 -159 3
70 70 c39 39 115 101 170 137 385 254 786 361 1193 318z m-507 -801 c107 -50
185 -144 214 -256 14 -53 15 -138 13 -615 l-3 -554 -37 -76 c-45 -89 -94 -138
-187 -182 l-66 -31 -548 -3 c-355 -2 -567 1 -605 8 -118 21 -229 106 -272 205
-38 89 -41 151 -38 700 3 527 4 530 27 588 42 107 114 180 217 222 l59 25 585
-3 585 -2 56 -26z m1084 -835 c61 -95 160 -302 214 -447 100 -268 149 -505
158 -772 13 -399 -75 -730 -295 -1109 l-40 -69 35 -35 c117 -116 90 -303 -53
-372 -51 -25 -131 -29 -188 -10 -19 6 -50 28 -69 49 l-35 39 -164 -82 c-163
-82 -442 -184 -471 -173 -20 7 -129 189 -120 198 4 4 64 28 133 53 285 106
472 219 629 381 179 185 289 401 355 696 85 382 48 750 -120 1200 -45 122 -46
125 -35 189 6 36 14 123 17 193 4 70 8 127 10 127 2 0 20 -25 39 -56z m-187
-776 c43 -175 42 -474 -1 -658 -86 -363 -274 -687 -542 -931 -115 -104 -246
-192 -445 -299 -175 -93 -246 -145 -310 -225 -51 -64 -52 -66 -39 -98 21 -50
17 -145 -9 -194 -95 -181 -369 -151 -422 48 -12 43 -4 110 17 152 13 27 12 29
-96 160 -99 119 -115 134 -155 145 -50 13 -100 51 -121 93 -24 46 -19 135 10
185 42 72 139 114 215 94 35 -10 45 -6 216 86 318 171 592 342 774 482 132
103 310 250 369 306 65 63 64 51 -15 -114 -78 -162 -172 -300 -273 -400 -143
-141 -398 -308 -713 -466 -176 -88 -187 -95 -198 -129 -7 -20 -25 -51 -40 -69
l-29 -32 91 -111 90 -110 39 10 c27 6 53 6 85 -2 26 -7 47 -11 49 -9 1 2 18
28 37 58 57 90 180 232 249 287 35 27 125 91 199 141 311 209 479 387 615 653
101 198 155 401 155 585 l0 103 43 68 c24 37 64 105 88 150 24 46 47 83 50 83
4 0 11 -19 17 -42z m-3874 -1501 c93 -72 99 -209 10 -286 -109 -96 -286 -36
-301 102 -10 90 19 153 92 199 47 30 150 22 199 -15z m4863 4 c106 -77 102
-249 -8 -310 -120 -68 -279 17 -279 150 1 112 78 189 191 189 46 0 63 -5 96
-29z m-3452 -62 c76 -21 136 -83 150 -156 10 -54 -20 -140 -65 -185 -44 -45
-46 -43 73 -78 42 -13 77 -28 77 -34 0 -16 -117 -196 -127 -196 -25 1 -155 36
-263 72 -119 39 -283 111 -362 159 l-37 23 -35 -36 c-45 -46 -91 -61 -176 -56
-52 3 -76 9 -108 31 -158 104 -115 348 72 407 101 32 237 -37 261 -133 l7 -27
139 0 139 0 0 28 c1 71 67 154 141 177 55 17 65 17 114 4z"/>
<path d="M3250 3711 c0 -439 3 -560 13 -564 6 -2 255 -2 552 0 l540 5 0 556 0
557 -552 3 -553 2 0 -559z"/>
</g>
</svg>
