<?xml version="1.0" encoding="UTF-8" standalone="no"?>
<!-- Created with Inkscape (http://www.inkscape.org/) -->
<svg xmlns:dc="http://purl.org/dc/elements/1.1/" xmlns:cc="http://creativecommons.org/ns#" xmlns:rdf="http://www.w3.org/1999/02/22-rdf-syntax-ns#" xmlns:svg="http://www.w3.org/2000/svg" xmlns="http://www.w3.org/2000/svg" xmlns:sodipodi="http://sodipodi.sourceforge.net/DTD/sodipodi-0.dtd" xmlns:inkscape="http://www.inkscape.org/namespaces/inkscape" width="71.004128" height="70.991707" id="svg2" version="1.1" inkscape:version="0.48.4 r9939" inkscape:export-filename="C:\Users\Matthew\Documents\mattlilley.com\atom_small2.png" inkscape:export-xdpi="90.010513" inkscape:export-ydpi="90.010513" sodipodi:docname="atom.svg">
  <defs/>
  <metadata id="metadata7"/>
  <g inkscape:label="Layer 1" inkscape:groupmode="layer" id="layer1" transform="translate(-4.3032951,-946.72054)">
    <path sodipodi:type="arc" style="fill:#005472;fill-opacity:1;fill-rule:nonzero;stroke:#005472;stroke-opacity:1" id="path2998" sodipodi:cx="-517.1875" sodipodi:cy="-133.32751" sodipodi:rx="85.9375" sodipodi:ry="85.9375" d="m -431.25,-133.32751 c 0,47.461966 -38.47553,85.937495 -85.9375,85.937495 -47.46197,0 -85.9375,-38.475529 -85.9375,-85.937495 0,-47.46198 38.47553,-85.9375 85.9375,-85.9375 47.46197,0 85.9375,38.47552 85.9375,85.9375 z" transform="matrix(0.0884593,0,0,0.0884593,85.5554,994.0107)"/>
    <path transform="matrix(0.39736481,0,0,0.39736481,245.31747,1035.1963)" d="m -431.25,-133.32751 c 0,47.461966 -38.47553,85.937495 -85.9375,85.937495 -47.46197,0 -85.9375,-38.475529 -85.9375,-85.937495 0,-47.46198 38.47553,-85.9375 85.9375,-85.9375 47.46197,0 85.9375,38.47552 85.9375,85.9375 z" sodipodi:ry="85.9375" sodipodi:rx="85.9375" sodipodi:cy="-133.32751" sodipodi:cx="-517.1875" id="path3000" style="fill:none;stroke:#005472;stroke-width:6.80212021;stroke-miterlimit:4;stroke-opacity:1;stroke-dasharray:none" sodipodi:type="arc"/>
    <path sodipodi:type="arc" style="fill:#005472;fill-opacity:1;fill-rule:nonzero;stroke:#005472;stroke-opacity:1" id="path2998-5" sodipodi:cx="-517.1875" sodipodi:cy="-133.32751" sodipodi:rx="85.9375" sodipodi:ry="85.9375" d="m -431.25,-133.32751 c 0,47.461966 -38.47553,85.937495 -85.9375,85.937495 -47.46197,0 -85.9375,-38.475529 -85.9375,-85.937495 0,-47.46198 38.47553,-85.9375 85.9375,-85.9375 47.46197,0 85.9375,38.47552 85.9375,85.9375 z" transform="matrix(0.04914406,0,0,0.04914406,89.113952,964.87698)"/>
  </g>
</svg>
